<svg xmlns="http://www.w3.org/2000/svg" viewBox="0 0 109.9 75.93"><defs><style>.cls-1{fill:#05118f;}.cls-2{fill:#ffe600;}.cls-3{fill:#fdfdfd;}.cls-4{fill:#fcfcfd;}</style></defs><title>Recurso 2</title><g id="Capa_2" data-name="Capa 2"><g id="Capa_1-2" data-name="Capa 1"><path class="cls-1" d="M55.1,75.93a98.63,98.63,0,0,1-15.39-1.29,70.86,70.86,0,0,1-11.59-3,52.12,52.12,0,0,1-12.94-6.59,40,40,0,0,1-6.25-5.37,34.92,34.92,0,0,1-7.38-12C0,43.59-.1,39.22.05,34.83c.18-5.54,2.31-10.34,5.49-14.76A33.53,33.53,0,0,1,8.9,16.2a40.47,40.47,0,0,1,5.59-4.67A53.4,53.4,0,0,1,22.6,6.81,69.81,69.81,0,0,1,40.79,1.23C44.08.68,47.39.4,50.72.15A72.21,72.21,0,0,1,61.33.26,73.89,73.89,0,0,1,83.74,5.35C90.89,8.26,97.36,12.19,102.55,18a27.49,27.49,0,0,1,7,13.74,34.74,34.74,0,0,1,.11,9.77,30.83,30.83,0,0,1-7,16.19,39.63,39.63,0,0,1-11.17,9.4,65.68,65.68,0,0,1-25.27,8.14A105.77,105.77,0,0,1,55.1,75.93ZM79.83,48.71a6.06,6.06,0,0,1-6.56,5.61c-.48,0-.68,0-.87.52a5.78,5.78,0,0,1-6,3.55c-.62-.08-1.13-.14-1.58.51A3.46,3.46,0,0,1,62.91,60a9,9,0,0,1-6.74-.85c-.4-.19-.71-.41-1.18,0a6.29,6.29,0,0,1-9.65-1.84.63.63,0,0,0-.8-.39,5.8,5.8,0,0,1-6.21-2.83.88.88,0,0,0-.88-.47c-3.21.07-5.21-1.32-6.38-4.4a.63.63,0,0,0-.73-.49A5.26,5.26,0,0,1,24.83,42a.77.77,0,0,0-.4-1,26.1,26.1,0,0,0-3.26-1.73c-5.87-2.63-12.1-4-18.32-5.51-.64-.15-.59.22-.62.58a19.43,19.43,0,0,0,.18,4.7,26.37,26.37,0,0,0,7.8,14.7,48.64,48.64,0,0,0,18,11.17A76.38,76.38,0,0,0,58.3,69.49a73.45,73.45,0,0,0,24.5-5c7.31-2.9,13.9-6.9,19-13.05,3.89-4.72,6.15-10.06,6-16.29,0-.5.12-1-.77-.82a149.51,149.51,0,0,0-20.33,6.34c-.61.25-.71.47-.46,1.1A4.83,4.83,0,0,1,83.94,48,6,6,0,0,1,79.83,48.71ZM41.52,18.18c-1,.27-1.77.43-2.5.66a18.43,18.43,0,0,1-9.2.75,72.45,72.45,0,0,1-13.74-4,3.47,3.47,0,0,0-4.34.82c-4.15,4-7.45,8.44-8.93,14.08-.17.64-.08.9.6,1.07,2.82.68,5.64,1.38,8.44,2.17,4.83,1.37,9.63,2.86,13.91,5.6.43.28.64.11,1-.12a5.22,5.22,0,0,1,6.86.34.86.86,0,0,0,1.2.14,6.17,6.17,0,0,1,7.87,1.78.72.72,0,0,0,.91.32c3.94-.77,7,1.54,7.18,5.52,0,.71.29.77.87.83a6.32,6.32,0,0,1,5.51,7.51c-.34,1.6-.34,1.6,1.28,2.15a8.51,8.51,0,0,0,1,.3,5.27,5.27,0,0,0,3.5-.33c.59-.29.87-.62.25-1.21S62,55.33,61.47,54.72c-.81-.88-1.62-1.76-2.41-2.67A.74.74,0,0,1,59,51c.32-.35.7-.19,1,0a4.71,4.71,0,0,1,.56.44c1.47,1.23,2.84,2.57,4.2,3.93a3.3,3.3,0,0,0,4.2.45c1.56-1,1.75-2.18.53-3.56-1.47-1.66-3-3.3-4.44-5-.39-.45-1.21-1-.55-1.61s1.18.16,1.66.57c1.84,1.59,3.55,3.32,5.28,5a3.8,3.8,0,0,0,5.34-.39c1.34-1.33,1.22-2.8-.34-4.37-2.06-2.06-4.13-4.11-6.17-6.18-.45-.46-1.3-1-.67-1.67s1.23.16,1.7.57c2.47,2.16,4.9,4.37,7.35,6.55a3.72,3.72,0,0,0,5.17-.4c1.13-1.26.81-3-.8-4.37-5.16-4.44-10.3-8.9-15.48-13.33-2-1.68-3.95-3.38-6.09-4.87a6.52,6.52,0,0,0-7.59-.31A35.37,35.37,0,0,0,50,25.12a32.92,32.92,0,0,1-4.33,3.11,9,9,0,0,1-8.66,0c-2.08-1-2.29-2.71-.73-4.39Zm65.83,13.3c0-.27-.1-.5-.15-.73-1.33-5.42-4.37-9.78-8.27-13.66A3,3,0,0,0,95,16.3a31.62,31.62,0,0,1-23.4,1.12c-2.74-.94-5.28-2.38-8.1-3.14-7.31-2-13.89-.89-19.47,4.52-2,2-3.93,4.09-5.86,6.18-.9,1-.86,1.29.42,1.74a7.14,7.14,0,0,0,6.31-.52,36.55,36.55,0,0,0,3.64-2.67,28.79,28.79,0,0,1,5.07-3.47,7.91,7.91,0,0,1,8.1.38,39.92,39.92,0,0,1,3.72,2.73c6.18,5.09,12.21,10.36,18.24,15.61a1.16,1.16,0,0,0,1.44.25c1.5-.66,3-1.27,4.55-1.85a128.65,128.65,0,0,1,16.84-5.12C106.84,32,107.41,32.11,107.35,31.48ZM95.08,14c-22-16.35-60-14.94-79.21-.65,4.05,1.51,8.19,2.65,12.35,3.75a17.52,17.52,0,0,0,10.19-.28,17.87,17.87,0,0,1,5-1,2.35,2.35,0,0,0,1.48-.57,19,19,0,0,1,10.6-3.94A26.89,26.89,0,0,1,69,14a29,29,0,0,0,17.16,2.61A35.75,35.75,0,0,0,95.08,14Zm-61.68,30c-.08-.45-.13-.75-.2-1.05a3.28,3.28,0,0,0-6.33-.6A3.31,3.31,0,0,0,32,46c.19-.14.35-.5.68-.25s.19.48.18.76c0,.44,0,.88,0,1.32.18,2.84,3.72,4.91,5.94,3.14.69-.55,1-.17.93.59a3.13,3.13,0,0,0,2.06,3,3,3,0,0,0,3.62-.34c.25-.22.5-.55.88-.39s.33.55.37.89a4.26,4.26,0,0,0,5.1,3.79,4.25,4.25,0,1,0-2.16-8.21c-.41.12-.86.48-1.25.14s0-.82.09-1.23c0-.26.12-.53.17-.8a3.69,3.69,0,0,0-1.37-4.09,3.83,3.83,0,0,0-4.66.18c-.64.48-.91.4-1.06-.43a3.37,3.37,0,0,0-3.52-3C35.93,41,34.55,42.12,33.4,43.92Z"/><path class="cls-2" d="M79.83,48.71a6,6,0,0,0,4.11-.7,4.83,4.83,0,0,0,2.25-6.22c-.25-.63-.15-.85.46-1.1A149.51,149.51,0,0,1,107,34.35c.89-.21.76.32.77.82.18,6.23-2.08,11.57-6,16.29-5.08,6.15-11.67,10.15-19,13.05a73.45,73.45,0,0,1-24.5,5,76.38,76.38,0,0,1-30.11-4.57,48.64,48.64,0,0,1-18-11.17,26.37,26.37,0,0,1-7.8-14.7,19.43,19.43,0,0,1-.18-4.7c0-.36,0-.73.62-.58,6.22,1.47,12.45,2.88,18.32,5.51A26.1,26.1,0,0,1,24.43,41a.77.77,0,0,1,.4,1,5.26,5.26,0,0,0,5.51,6.75.63.63,0,0,1,.73.49c1.17,3.08,3.17,4.47,6.38,4.4a.88.88,0,0,1,.88.47,5.8,5.8,0,0,0,6.21,2.83.63.63,0,0,1,.8.39A6.29,6.29,0,0,0,55,59.17c.47-.41.78-.19,1.18,0a9,9,0,0,0,6.74.85,3.46,3.46,0,0,0,1.92-1.12c.45-.65,1-.59,1.58-.51a5.78,5.78,0,0,0,6-3.55c.19-.48.39-.55.87-.52A6.06,6.06,0,0,0,79.83,48.71Z"/><path class="cls-3" d="M41.52,18.18l-5.21,5.63C34.75,25.49,35,27.19,37,28.2a9,9,0,0,0,8.66,0A32.92,32.92,0,0,0,50,25.12a35.37,35.37,0,0,1,3.81-2.58,6.52,6.52,0,0,1,7.59.31c2.14,1.49,4.11,3.19,6.09,4.87C72.7,32.15,77.84,36.61,83,41.05c1.61,1.38,1.93,3.11.8,4.37a3.72,3.72,0,0,1-5.17.4c-2.45-2.18-4.88-4.39-7.35-6.55-.47-.41-1-1.27-1.7-.57s.22,1.21.67,1.67c2,2.07,4.11,4.12,6.17,6.18,1.56,1.57,1.68,3,.34,4.37a3.8,3.8,0,0,1-5.34.39c-1.73-1.71-3.44-3.44-5.28-5-.48-.41-1.08-1.11-1.66-.57s.16,1.16.55,1.61c1.46,1.68,3,3.32,4.44,5,1.22,1.38,1,2.6-.53,3.56a3.3,3.3,0,0,1-4.2-.45c-1.36-1.36-2.73-2.7-4.2-3.93A4.71,4.71,0,0,0,60,51c-.33-.2-.71-.36-1,0a.74.74,0,0,0,.11,1c.79.91,1.6,1.79,2.41,2.67.55.61,1.07,1.25,1.66,1.82s.34.92-.25,1.21a5.27,5.27,0,0,1-3.5.33,8.51,8.51,0,0,1-1-.3c-1.62-.55-1.62-.55-1.28-2.15a6.32,6.32,0,0,0-5.51-7.51c-.58-.06-.84-.12-.87-.83-.22-4-3.24-6.29-7.18-5.52a.72.72,0,0,1-.91-.32,6.17,6.17,0,0,0-7.87-1.78.86.86,0,0,1-1.2-.14,5.22,5.22,0,0,0-6.86-.34c-.32.23-.53.4-1,.12-4.28-2.74-9.08-4.23-13.91-5.6-2.8-.79-5.62-1.49-8.44-2.17-.68-.17-.77-.43-.6-1.07,1.48-5.64,4.78-10.1,8.93-14.08a3.47,3.47,0,0,1,4.34-.82,72.45,72.45,0,0,0,13.74,4,18.43,18.43,0,0,0,9.2-.75C39.75,18.61,40.51,18.45,41.52,18.18Z"/><path class="cls-3" d="M107.35,31.48c.06.63-.51.5-.84.58a128.65,128.65,0,0,0-16.84,5.12c-1.53.58-3,1.19-4.55,1.85a1.16,1.16,0,0,1-1.44-.25c-6-5.25-12.06-10.52-18.24-15.61a39.92,39.92,0,0,0-3.72-2.73,7.91,7.91,0,0,0-8.1-.38,28.79,28.79,0,0,0-5.07,3.47,36.55,36.55,0,0,1-3.64,2.67,7.14,7.14,0,0,1-6.31.52c-1.28-.45-1.32-.77-.42-1.74C40.11,22.89,42,20.78,44,18.8c5.58-5.41,12.16-6.48,19.47-4.52,2.82.76,5.36,2.2,8.1,3.14A31.62,31.62,0,0,0,95,16.3a3,3,0,0,1,3.92.79c3.9,3.88,6.94,8.24,8.27,13.66C107.25,31,107.3,31.21,107.35,31.48Z"/><path class="cls-2" d="M95.08,14a35.75,35.75,0,0,1-8.89,2.68A29,29,0,0,1,69,14,26.89,26.89,0,0,0,55.51,11.3a19,19,0,0,0-10.6,3.94,2.35,2.35,0,0,1-1.48.57,17.87,17.87,0,0,0-5,1,17.52,17.52,0,0,1-10.19.28c-4.16-1.1-8.3-2.24-12.35-3.75C35.06-1,73.12-2.39,95.08,14Z"/><path class="cls-4" d="M33.4,43.92c1.15-1.8,2.53-2.93,4.61-2.85a3.37,3.37,0,0,1,3.52,3c.15.83.42.91,1.06.43a3.83,3.83,0,0,1,4.66-.18,3.69,3.69,0,0,1,1.37,4.09c0,.27-.13.54-.17.8-.07.41-.53.85-.09,1.23s.84,0,1.25-.14a4.25,4.25,0,1,1-2.94,4.42c0-.34,0-.73-.37-.89s-.63.17-.88.39a3,3,0,0,1-3.62.34,3.13,3.13,0,0,1-2.06-3c0-.76-.24-1.14-.93-.59-2.22,1.77-5.76-.3-5.94-3.14,0-.44,0-.88,0-1.32,0-.28.07-.57-.18-.76s-.49.11-.68.25a3.31,3.31,0,0,1-5.14-3.76,3.28,3.28,0,0,1,6.33.6C33.27,43.17,33.32,43.47,33.4,43.92Z"/></g></g></svg>